# xmcd CD database file
#
# Track frame offsets:
#	150
#	2798
#	15283
#	21561
#	40400
#	54995
#	65338
#	82804
#	91103
#	110433
#	124971
#	139702
#	154622
#	172932
#
# Disc length: 2930 seconds
#
# Revision: 0
# Processed by: cddbd v1.5.1PL0 Copyright (c) Steve Scherf et al.
# Submitted via: CDex 1.51
#
DISCID=a20b700e
DTITLE=Doron Djerassi - Voice In A Box
DYEAR=2002
DGENRE=Blues
TTITLE0=What Am I Gonna Save?
TTITLE1=Subway Town
TTITLE2=Smoke
TTITLE3=I'm Dying From Cancer
TTITLE4=Sex-capade with Darlin
TTITLE5=The Beat
TTITLE6=Trash, Dirt and Shit (Still True)
TTITLE7=Stand By Me
TTITLE8=The Retard Blues
TTITLE9=I'm Fat!
TTITLE10=Come Sweet Rain
TTITLE11=Only A Phase In Life
TTITLE12=Voice In A Box
TTITLE13=Data
EXTD=YEAR: 2002
EXTT0=
EXTT1=
EXTT2=
EXTT3=
EXTT4=
EXTT5=
EXTT6=
EXTT7=
EXTT8=
EXTT9=
EXTT10=
EXTT11=
EXTT12=
EXTT13=
PLAYORDER=
